<?xml version="1.0" encoding="UTF-8"?><svg id="a" xmlns="http://www.w3.org/2000/svg" viewBox="0 0 500 500"><g opacity=".4"><rect x="-.21" y="-.12" width="27.78" height="27.79" fill="#fff"/><rect x="27.58" y="-.12" width="27.79" height="27.79" fill="#c9c9c9"/><rect x="55.36" y="-.12" width="27.79" height="27.79" fill="#fff"/><rect x="83.15" y="-.12" width="27.78" height="27.79" fill="#c9c9c9"/><rect x="110.93" y="-.12" width="27.78" height="27.79" fill="#fff"/><rect x="138.71" y="-.12" width="27.79" height="27.79" fill="#c9c9c9"/><rect x="166.5" y="-.12" width="27.78" height="27.79" fill="#fff"/><rect x="194.28" y="-.12" width="27.78" height="27.79" fill="#c9c9c9"/><rect x="222.07" y="-.12" width="27.79" height="27.79" fill="#fff"/><rect x="249.86" y="-.12" width="27.78" height="27.79" fill="#c9c9c9"/><rect x="277.64" y="-.12" width="27.79" height="27.79" fill="#fff"/><rect x="305.42" y="-.12" width="27.78" height="27.79" fill="#c9c9c9"/><rect x="333.21" y="-.12" width="27.79" height="27.79" fill="#fff"/><rect x="360.99" y="-.12" width="27.78" height="27.79" fill="#c9c9c9"/><rect x="388.78" y="-.12" width="27.79" height="27.79" fill="#fff"/><rect x="416.57" y="-.12" width="27.78" height="27.79" fill="#c9c9c9"/><rect x="444.35" y="-.12" width="27.79" height="27.79" fill="#fff"/><rect x="472.13" y="-.12" width="27.78" height="27.79" fill="#c9c9c9"/><rect x="472.13" y="27.67" width="27.78" height="27.79" fill="#fff"/><rect x="444.35" y="27.67" width="27.79" height="27.79" fill="#c9c9c9"/><rect x="416.57" y="27.67" width="27.78" height="27.79" fill="#fff"/><rect x="388.78" y="27.67" width="27.79" height="27.79" fill="#c9c9c9"/><rect x="360.99" y="27.67" width="27.78" height="27.79" fill="#fff"/><rect x="333.21" y="27.67" width="27.79" height="27.79" fill="#c9c9c9"/><rect x="305.42" y="27.67" width="27.78" height="27.79" fill="#fff"/><rect x="277.64" y="27.67" width="27.79" height="27.79" fill="#c9c9c9"/><rect x="249.86" y="27.67" width="27.78" height="27.79" fill="#fff"/><rect x="222.07" y="27.67" width="27.79" height="27.79" fill="#c9c9c9"/><rect x="194.28" y="27.67" width="27.78" height="27.79" fill="#fff"/><rect x="166.5" y="27.67" width="27.78" height="27.79" fill="#c9c9c9"/><rect x="138.71" y="27.67" width="27.79" height="27.79" fill="#fff"/><rect x="110.93" y="27.67" width="27.78" height="27.79" fill="#c9c9c9"/><rect x="83.15" y="27.67" width="27.78" height="27.79" fill="#fff"/><rect x="55.36" y="27.67" width="27.79" height="27.79" fill="#c9c9c9"/><rect x="27.58" y="27.67" width="27.79" height="27.79" fill="#fff"/><rect x="-.21" y="27.67" width="27.78" height="27.79" fill="#c9c9c9"/><rect x="-.21" y="55.45" width="27.78" height="27.79" fill="#fff"/><rect x="27.58" y="55.45" width="27.79" height="27.79" fill="#c9c9c9"/><rect x="55.36" y="55.45" width="27.79" height="27.79" fill="#fff"/><rect x="83.15" y="55.45" width="27.78" height="27.79" fill="#c9c9c9"/><rect x="110.93" y="55.45" width="27.78" height="27.79" fill="#fff"/><rect x="138.71" y="55.45" width="27.79" height="27.79" fill="#c9c9c9"/><rect x="166.5" y="55.45" width="27.78" height="27.79" fill="#fff"/><rect x="194.28" y="55.45" width="27.78" height="27.79" fill="#c9c9c9"/><rect x="222.07" y="55.45" width="27.79" height="27.79" fill="#fff"/><rect x="249.86" y="55.45" width="27.78" height="27.79" fill="#c9c9c9"/><rect x="277.64" y="55.45" width="27.79" height="27.79" fill="#fff"/><rect x="305.42" y="55.45" width="27.78" height="27.79" fill="#c9c9c9"/><rect x="333.21" y="55.45" width="27.79" height="27.79" fill="#fff"/><rect x="360.99" y="55.45" width="27.78" height="27.79" fill="#c9c9c9"/><rect x="388.78" y="55.45" width="27.79" height="27.79" fill="#fff"/><rect x="416.57" y="55.45" width="27.78" height="27.79" fill="#c9c9c9"/><rect x="444.35" y="55.45" width="27.79" height="27.79" fill="#fff"/><rect x="472.13" y="55.45" width="27.78" height="27.79" fill="#c9c9c9"/><rect x="472.13" y="83.24" width="27.78" height="27.79" fill="#fff"/><rect x="444.35" y="83.24" width="27.79" height="27.79" fill="#c9c9c9"/><rect x="416.57" y="83.24" width="27.78" height="27.79" fill="#fff"/><rect x="388.78" y="83.24" width="27.79" height="27.79" fill="#c9c9c9"/><rect x="360.99" y="83.24" width="27.78" height="27.79" fill="#fff"/><rect x="333.21" y="83.24" width="27.79" height="27.79" fill="#c9c9c9"/><rect x="305.42" y="83.24" width="27.78" height="27.79" fill="#fff"/><rect x="277.64" y="83.24" width="27.79" height="27.79" fill="#c9c9c9"/><rect x="249.86" y="83.24" width="27.78" height="27.79" fill="#fff"/><rect x="222.07" y="83.24" width="27.79" height="27.79" fill="#c9c9c9"/><rect x="194.28" y="83.24" width="27.78" height="27.79" fill="#fff"/><rect x="166.5" y="83.24" width="27.78" height="27.79" fill="#c9c9c9"/><rect x="138.71" y="83.24" width="27.79" height="27.79" fill="#fff"/><rect x="110.93" y="83.24" width="27.78" height="27.79" fill="#c9c9c9"/><rect x="83.15" y="83.24" width="27.78" height="27.79" fill="#fff"/><rect x="55.36" y="83.24" width="27.79" height="27.79" fill="#c9c9c9"/><rect x="27.58" y="83.24" width="27.79" height="27.79" fill="#fff"/><rect x="-.21" y="83.24" width="27.78" height="27.79" fill="#c9c9c9"/><rect x="-.21" y="111.01" width="27.78" height="27.79" fill="#fff"/><rect x="27.58" y="111.01" width="27.79" height="27.79" fill="#c9c9c9"/><rect x="55.36" y="111.01" width="27.79" height="27.79" fill="#fff"/><rect x="83.15" y="111.01" width="27.78" height="27.79" fill="#c9c9c9"/><rect x="110.93" y="111.01" width="27.78" height="27.79" fill="#fff"/><rect x="138.71" y="111.01" width="27.79" height="27.79" fill="#c9c9c9"/><rect x="166.5" y="111.01" width="27.78" height="27.79" fill="#fff"/><rect x="194.28" y="111.01" width="27.78" height="27.79" fill="#c9c9c9"/><rect x="222.07" y="111.01" width="27.79" height="27.79" fill="#fff"/><rect x="249.86" y="111.01" width="27.78" height="27.79" fill="#c9c9c9"/><rect x="277.64" y="111.01" width="27.79" height="27.79" fill="#fff"/><rect x="305.42" y="111.01" width="27.78" height="27.79" fill="#c9c9c9"/><rect x="333.21" y="111.01" width="27.79" height="27.79" fill="#fff"/><rect x="360.99" y="111.01" width="27.78" height="27.79" fill="#c9c9c9"/><rect x="388.78" y="111.01" width="27.79" height="27.79" fill="#fff"/><rect x="416.57" y="111.01" width="27.78" height="27.79" fill="#c9c9c9"/><rect x="444.35" y="111.01" width="27.79" height="27.79" fill="#fff"/><rect x="472.13" y="111.01" width="27.78" height="27.79" fill="#c9c9c9"/><rect x="472.13" y="138.81" width="27.78" height="27.79" fill="#fff"/><rect x="444.35" y="138.81" width="27.79" height="27.79" fill="#c9c9c9"/><rect x="416.57" y="138.81" width="27.78" height="27.79" fill="#fff"/><rect x="388.78" y="138.81" width="27.79" height="27.79" fill="#c9c9c9"/><rect x="360.99" y="138.81" width="27.78" height="27.79" fill="#fff"/><rect x="333.21" y="138.81" width="27.79" height="27.79" fill="#c9c9c9"/><rect x="305.42" y="138.81" width="27.78" height="27.79" fill="#fff"/><rect x="277.64" y="138.81" width="27.79" height="27.79" fill="#c9c9c9"/><rect x="249.86" y="138.81" width="27.78" height="27.79" fill="#fff"/><rect x="222.07" y="138.81" width="27.79" height="27.79" fill="#c9c9c9"/><rect x="194.28" y="138.81" width="27.78" height="27.79" fill="#fff"/><rect x="166.5" y="138.81" width="27.78" height="27.79" fill="#c9c9c9"/><rect x="138.71" y="138.81" width="27.79" height="27.79" fill="#fff"/><rect x="110.93" y="138.81" width="27.78" height="27.79" fill="#c9c9c9"/><rect x="83.15" y="138.81" width="27.78" height="27.79" fill="#fff"/><rect x="55.36" y="138.81" width="27.79" height="27.79" fill="#c9c9c9"/><rect x="27.58" y="138.81" width="27.79" height="27.79" fill="#fff"/><rect x="-.21" y="138.81" width="27.78" height="27.79" fill="#c9c9c9"/><rect x="-.21" y="166.59" width="27.78" height="27.79" fill="#fff"/><rect x="27.58" y="166.59" width="27.79" height="27.79" fill="#c9c9c9"/><rect x="55.36" y="166.59" width="27.79" height="27.79" fill="#fff"/><rect x="83.15" y="166.59" width="27.78" height="27.79" fill="#c9c9c9"/><rect x="110.93" y="166.59" width="27.78" height="27.79" fill="#fff"/><rect x="138.71" y="166.59" width="27.79" height="27.79" fill="#c9c9c9"/><rect x="166.5" y="166.59" width="27.78" height="27.79" fill="#fff"/><rect x="194.28" y="166.59" width="27.78" height="27.79" fill="#c9c9c9"/><rect x="222.07" y="166.59" width="27.79" height="27.79" fill="#fff"/><rect x="249.86" y="166.59" width="27.78" height="27.79" fill="#c9c9c9"/><rect x="277.64" y="166.59" width="27.79" height="27.79" fill="#fff"/><rect x="305.42" y="166.59" width="27.78" height="27.79" fill="#c9c9c9"/><rect x="333.21" y="166.59" width="27.79" height="27.79" fill="#fff"/><rect x="360.99" y="166.59" width="27.78" height="27.79" fill="#c9c9c9"/><rect x="388.78" y="166.59" width="27.79" height="27.79" fill="#fff"/><rect x="416.57" y="166.59" width="27.78" height="27.79" fill="#c9c9c9"/><rect x="444.35" y="166.59" width="27.79" height="27.79" fill="#fff"/><rect x="472.13" y="166.59" width="27.78" height="27.79" fill="#c9c9c9"/><rect x="472.13" y="194.37" width="27.78" height="27.79" fill="#fff"/><rect x="444.35" y="194.37" width="27.79" height="27.79" fill="#c9c9c9"/><rect x="416.57" y="194.37" width="27.78" height="27.79" fill="#fff"/><rect x="388.78" y="194.37" width="27.79" height="27.79" fill="#c9c9c9"/><rect x="360.99" y="194.37" width="27.78" height="27.79" fill="#fff"/><rect x="333.21" y="194.37" width="27.79" height="27.79" fill="#c9c9c9"/><rect x="305.42" y="194.37" width="27.78" height="27.79" fill="#fff"/><rect x="277.64" y="194.37" width="27.79" height="27.79" fill="#c9c9c9"/><rect x="249.86" y="194.37" width="27.78" height="27.79" fill="#fff"/><rect x="222.07" y="194.37" width="27.79" height="27.79" fill="#c9c9c9"/><rect x="194.28" y="194.37" width="27.78" height="27.79" fill="#fff"/><rect x="166.5" y="194.37" width="27.78" height="27.79" fill="#c9c9c9"/><rect x="138.71" y="194.37" width="27.79" height="27.79" fill="#fff"/><rect x="110.93" y="194.37" width="27.78" height="27.79" fill="#c9c9c9"/><rect x="83.15" y="194.37" width="27.78" height="27.79" fill="#fff"/><rect x="55.36" y="194.37" width="27.79" height="27.79" fill="#c9c9c9"/><rect x="27.58" y="194.37" width="27.79" height="27.79" fill="#fff"/><rect x="-.21" y="194.37" width="27.78" height="27.79" fill="#c9c9c9"/><rect x="-.21" y="222.15" width="27.78" height="27.79" fill="#fff"/><rect x="27.58" y="222.15" width="27.79" height="27.79" fill="#c9c9c9"/><rect x="55.36" y="222.15" width="27.79" height="27.79" fill="#fff"/><rect x="83.15" y="222.15" width="27.78" height="27.79" fill="#c9c9c9"/><rect x="110.93" y="222.15" width="27.78" height="27.79" fill="#fff"/><rect x="138.71" y="222.15" width="27.79" height="27.79" fill="#c9c9c9"/><rect x="166.5" y="222.15" width="27.78" height="27.79" fill="#fff"/><rect x="194.28" y="222.15" width="27.78" height="27.79" fill="#c9c9c9"/><rect x="222.07" y="222.15" width="27.79" height="27.79" fill="#fff"/><rect x="249.86" y="222.15" width="27.78" height="27.79" fill="#c9c9c9"/><rect x="277.64" y="222.15" width="27.79" height="27.79" fill="#fff"/><rect x="305.42" y="222.15" width="27.78" height="27.79" fill="#c9c9c9"/><rect x="333.21" y="222.15" width="27.79" height="27.79" fill="#fff"/><rect x="360.99" y="222.15" width="27.78" height="27.79" fill="#c9c9c9"/><rect x="388.78" y="222.15" width="27.79" height="27.79" fill="#fff"/><rect x="416.57" y="222.15" width="27.78" height="27.79" fill="#c9c9c9"/><rect x="444.35" y="222.15" width="27.79" height="27.79" fill="#fff"/><rect x="472.13" y="222.15" width="27.78" height="27.79" fill="#c9c9c9"/><rect x="472.13" y="249.95" width="27.78" height="27.79" fill="#fff"/><rect x="444.35" y="249.95" width="27.79" height="27.79" fill="#c9c9c9"/><rect x="416.57" y="249.95" width="27.78" height="27.79" fill="#fff"/><rect x="388.78" y="249.95" width="27.79" height="27.79" fill="#c9c9c9"/><rect x="360.99" y="249.95" width="27.78" height="27.79" fill="#fff"/><rect x="333.21" y="249.95" width="27.79" height="27.79" fill="#c9c9c9"/><rect x="305.42" y="249.95" width="27.78" height="27.79" fill="#fff"/><rect x="277.64" y="249.95" width="27.79" height="27.79" fill="#c9c9c9"/><rect x="249.86" y="249.95" width="27.78" height="27.79" fill="#fff"/><rect x="222.07" y="249.95" width="27.79" height="27.79" fill="#c9c9c9"/><rect x="194.28" y="249.95" width="27.78" height="27.79" fill="#fff"/><rect x="166.5" y="249.95" width="27.78" height="27.79" fill="#c9c9c9"/><rect x="138.71" y="249.95" width="27.79" height="27.79" fill="#fff"/><rect x="110.93" y="249.95" width="27.78" height="27.79" fill="#c9c9c9"/><rect x="83.15" y="249.95" width="27.78" height="27.79" fill="#fff"/><rect x="55.36" y="249.95" width="27.79" height="27.79" fill="#c9c9c9"/><rect x="27.58" y="249.95" width="27.79" height="27.79" fill="#fff"/><rect x="-.21" y="249.95" width="27.78" height="27.79" fill="#c9c9c9"/><rect x="-.21" y="277.72" width="27.78" height="27.79" fill="#fff"/><rect x="27.58" y="277.72" width="27.79" height="27.79" fill="#c9c9c9"/><rect x="55.36" y="277.72" width="27.79" height="27.79" fill="#fff"/><rect x="83.15" y="277.72" width="27.78" height="27.79" fill="#c9c9c9"/><rect x="110.93" y="277.72" width="27.78" height="27.79" fill="#fff"/><rect x="138.71" y="277.72" width="27.79" height="27.79" fill="#c9c9c9"/><rect x="166.5" y="277.72" width="27.78" height="27.79" fill="#fff"/><rect x="194.28" y="277.72" width="27.78" height="27.79" fill="#c9c9c9"/><rect x="222.07" y="277.72" width="27.79" height="27.79" fill="#fff"/><rect x="249.86" y="277.72" width="27.78" height="27.79" fill="#c9c9c9"/><rect x="277.64" y="277.72" width="27.79" height="27.79" fill="#fff"/><rect x="305.42" y="277.72" width="27.78" height="27.79" fill="#c9c9c9"/><rect x="333.21" y="277.72" width="27.79" height="27.79" fill="#fff"/><rect x="360.99" y="277.72" width="27.78" height="27.79" fill="#c9c9c9"/><rect x="388.78" y="277.72" width="27.79" height="27.79" fill="#fff"/><rect x="416.57" y="277.72" width="27.78" height="27.79" fill="#c9c9c9"/><rect x="444.35" y="277.72" width="27.79" height="27.79" fill="#fff"/><rect x="472.13" y="277.72" width="27.78" height="27.79" fill="#c9c9c9"/><rect x="472.13" y="305.51" width="27.78" height="27.79" fill="#fff"/><rect x="444.35" y="305.51" width="27.79" height="27.79" fill="#c9c9c9"/><rect x="416.57" y="305.51" width="27.78" height="27.79" fill="#fff"/><rect x="388.78" y="305.51" width="27.79" height="27.79" fill="#c9c9c9"/><rect x="360.99" y="305.51" width="27.78" height="27.79" fill="#fff"/><rect x="333.21" y="305.51" width="27.79" height="27.79" fill="#c9c9c9"/><rect x="305.42" y="305.51" width="27.78" height="27.79" fill="#fff"/><rect x="277.64" y="305.51" width="27.79" height="27.79" fill="#c9c9c9"/><rect x="249.86" y="305.51" width="27.78" height="27.79" fill="#fff"/><rect x="222.07" y="305.51" width="27.79" height="27.79" fill="#c9c9c9"/><rect x="194.28" y="305.51" width="27.78" height="27.79" fill="#fff"/><rect x="166.5" y="305.51" width="27.78" height="27.79" fill="#c9c9c9"/><rect x="138.71" y="305.51" width="27.79" height="27.79" fill="#fff"/><rect x="110.93" y="305.51" width="27.78" height="27.79" fill="#c9c9c9"/><rect x="83.15" y="305.51" width="27.78" height="27.79" fill="#fff"/><rect x="55.36" y="305.51" width="27.79" height="27.79" fill="#c9c9c9"/><rect x="27.58" y="305.51" width="27.79" height="27.79" fill="#fff"/><rect x="-.21" y="305.51" width="27.78" height="27.79" fill="#c9c9c9"/><rect x="-.21" y="333.29" width="27.78" height="27.79" fill="#fff"/><rect x="27.58" y="333.29" width="27.79" height="27.79" fill="#c9c9c9"/><rect x="55.36" y="333.29" width="27.79" height="27.79" fill="#fff"/><rect x="83.15" y="333.29" width="27.78" height="27.79" fill="#c9c9c9"/><rect x="110.93" y="333.29" width="27.78" height="27.79" fill="#fff"/><rect x="138.71" y="333.29" width="27.79" height="27.79" fill="#c9c9c9"/><rect x="166.5" y="333.29" width="27.78" height="27.79" fill="#fff"/><rect x="194.28" y="333.29" width="27.78" height="27.79" fill="#c9c9c9"/><rect x="222.07" y="333.29" width="27.79" height="27.79" fill="#fff"/><rect x="249.86" y="333.29" width="27.78" height="27.79" fill="#c9c9c9"/><rect x="277.64" y="333.29" width="27.79" height="27.79" fill="#fff"/><rect x="305.42" y="333.29" width="27.78" height="27.79" fill="#c9c9c9"/><rect x="333.21" y="333.29" width="27.79" height="27.79" fill="#fff"/><rect x="360.99" y="333.29" width="27.78" height="27.79" fill="#c9c9c9"/><rect x="388.78" y="333.29" width="27.79" height="27.79" fill="#fff"/><rect x="416.57" y="333.29" width="27.78" height="27.79" fill="#c9c9c9"/><rect x="444.35" y="333.29" width="27.79" height="27.79" fill="#fff"/><rect x="472.13" y="333.29" width="27.78" height="27.79" fill="#c9c9c9"/><rect x="472.13" y="361.08" width="27.78" height="27.79" fill="#fff"/><rect x="444.35" y="361.08" width="27.79" height="27.79" fill="#c9c9c9"/><rect x="416.57" y="361.08" width="27.78" height="27.79" fill="#fff"/><rect x="388.78" y="361.08" width="27.79" height="27.79" fill="#c9c9c9"/><rect x="360.99" y="361.08" width="27.78" height="27.79" fill="#fff"/><rect x="333.21" y="361.08" width="27.79" height="27.79" fill="#c9c9c9"/><rect x="305.42" y="361.08" width="27.78" height="27.79" fill="#fff"/><rect x="277.64" y="361.08" width="27.79" height="27.79" fill="#c9c9c9"/><rect x="249.86" y="361.08" width="27.78" height="27.79" fill="#fff"/><rect x="222.07" y="361.08" width="27.79" height="27.79" fill="#c9c9c9"/><rect x="194.28" y="361.08" width="27.78" height="27.79" fill="#fff"/><rect x="166.5" y="361.08" width="27.78" height="27.79" fill="#c9c9c9"/><rect x="138.71" y="361.08" width="27.79" height="27.79" fill="#fff"/><rect x="110.93" y="361.08" width="27.78" height="27.79" fill="#c9c9c9"/><rect x="83.15" y="361.08" width="27.78" height="27.79" fill="#fff"/><rect x="55.36" y="361.08" width="27.79" height="27.79" fill="#c9c9c9"/><rect x="27.58" y="361.08" width="27.79" height="27.79" fill="#fff"/><rect x="-.21" y="361.08" width="27.78" height="27.79" fill="#c9c9c9"/><rect x="-.21" y="388.86" width="27.78" height="27.79" fill="#fff"/><rect x="27.58" y="388.86" width="27.79" height="27.79" fill="#c9c9c9"/><rect x="55.36" y="388.86" width="27.79" height="27.79" fill="#fff"/><rect x="83.15" y="388.86" width="27.78" height="27.79" fill="#c9c9c9"/><rect x="110.93" y="388.86" width="27.78" height="27.79" fill="#fff"/><rect x="138.71" y="388.86" width="27.79" height="27.79" fill="#c9c9c9"/><rect x="166.5" y="388.86" width="27.78" height="27.79" fill="#fff"/><rect x="194.28" y="388.86" width="27.78" height="27.79" fill="#c9c9c9"/><rect x="222.07" y="388.86" width="27.79" height="27.79" fill="#fff"/><rect x="249.86" y="388.86" width="27.78" height="27.79" fill="#c9c9c9"/><rect x="277.64" y="388.86" width="27.79" height="27.79" fill="#fff"/><rect x="305.42" y="388.86" width="27.78" height="27.79" fill="#c9c9c9"/><rect x="333.21" y="388.86" width="27.79" height="27.79" fill="#fff"/><rect x="360.99" y="388.86" width="27.78" height="27.79" fill="#c9c9c9"/><rect x="388.78" y="388.86" width="27.79" height="27.79" fill="#fff"/><rect x="416.57" y="388.86" width="27.78" height="27.79" fill="#c9c9c9"/><rect x="444.35" y="388.86" width="27.79" height="27.79" fill="#fff"/><rect x="472.13" y="388.86" width="27.78" height="27.79" fill="#c9c9c9"/><rect x="472.13" y="416.65" width="27.78" height="27.79" fill="#fff"/><rect x="444.35" y="416.65" width="27.79" height="27.79" fill="#c9c9c9"/><rect x="416.57" y="416.65" width="27.78" height="27.79" fill="#fff"/><rect x="388.78" y="416.65" width="27.79" height="27.79" fill="#c9c9c9"/><rect x="360.99" y="416.65" width="27.78" height="27.79" fill="#fff"/><rect x="333.21" y="416.65" width="27.79" height="27.79" fill="#c9c9c9"/><rect x="305.42" y="416.65" width="27.78" height="27.79" fill="#fff"/><rect x="277.64" y="416.65" width="27.79" height="27.79" fill="#c9c9c9"/><rect x="249.86" y="416.65" width="27.78" height="27.79" fill="#fff"/><rect x="222.07" y="416.65" width="27.79" height="27.79" fill="#c9c9c9"/><rect x="194.28" y="416.65" width="27.78" height="27.79" fill="#fff"/><rect x="166.5" y="416.65" width="27.78" height="27.79" fill="#c9c9c9"/><rect x="138.71" y="416.65" width="27.79" height="27.79" fill="#fff"/><rect x="110.93" y="416.65" width="27.78" height="27.79" fill="#c9c9c9"/><rect x="83.15" y="416.65" width="27.78" height="27.79" fill="#fff"/><rect x="55.36" y="416.65" width="27.79" height="27.79" fill="#c9c9c9"/><rect x="27.58" y="416.65" width="27.79" height="27.79" fill="#fff"/><rect x="-.21" y="416.65" width="27.78" height="27.79" fill="#c9c9c9"/><rect x="-.21" y="444.43" width="27.78" height="27.79" fill="#fff"/><rect x="27.58" y="444.43" width="27.79" height="27.79" fill="#c9c9c9"/><rect x="55.36" y="444.43" width="27.79" height="27.79" fill="#fff"/><rect x="83.15" y="444.43" width="27.78" height="27.79" fill="#c9c9c9"/><rect x="110.93" y="444.43" width="27.78" height="27.79" fill="#fff"/><rect x="138.71" y="444.43" width="27.79" height="27.79" fill="#c9c9c9"/><rect x="166.5" y="444.43" width="27.78" height="27.79" fill="#fff"/><rect x="194.28" y="444.43" width="27.78" height="27.79" fill="#c9c9c9"/><rect x="222.07" y="444.43" width="27.79" height="27.79" fill="#fff"/><rect x="249.86" y="444.43" width="27.78" height="27.79" fill="#c9c9c9"/><rect x="277.64" y="444.43" width="27.79" height="27.79" fill="#fff"/><rect x="305.42" y="444.43" width="27.78" height="27.79" fill="#c9c9c9"/><rect x="333.21" y="444.43" width="27.79" height="27.79" fill="#fff"/><rect x="360.99" y="444.43" width="27.78" height="27.79" fill="#c9c9c9"/><rect x="388.78" y="444.43" width="27.79" height="27.79" fill="#fff"/><rect x="416.57" y="444.43" width="27.78" height="27.79" fill="#c9c9c9"/><rect x="444.35" y="444.43" width="27.79" height="27.79" fill="#fff"/><rect x="472.13" y="444.43" width="27.78" height="27.79" fill="#c9c9c9"/><rect x="472.13" y="472.22" width="27.78" height="27.79" fill="#fff"/><rect x="444.35" y="472.22" width="27.79" height="27.79" fill="#c9c9c9"/><rect x="416.57" y="472.22" width="27.78" height="27.79" fill="#fff"/><rect x="388.78" y="472.22" width="27.79" height="27.79" fill="#c9c9c9"/><rect x="360.99" y="472.22" width="27.78" height="27.79" fill="#fff"/><rect x="333.21" y="472.22" width="27.79" height="27.79" fill="#c9c9c9"/><rect x="305.42" y="472.22" width="27.78" height="27.79" fill="#fff"/><rect x="277.64" y="472.22" width="27.79" height="27.79" fill="#c9c9c9"/><rect x="249.86" y="472.22" width="27.78" height="27.79" fill="#fff"/><rect x="222.07" y="472.22" width="27.79" height="27.79" fill="#c9c9c9"/><rect x="194.28" y="472.22" width="27.78" height="27.79" fill="#fff"/><rect x="166.5" y="472.22" width="27.78" height="27.79" fill="#c9c9c9"/><rect x="138.71" y="472.22" width="27.79" height="27.79" fill="#fff"/><rect x="110.93" y="472.22" width="27.78" height="27.79" fill="#c9c9c9"/><rect x="83.15" y="472.22" width="27.78" height="27.79" fill="#fff"/><rect x="55.36" y="472.22" width="27.79" height="27.79" fill="#c9c9c9"/><rect x="27.58" y="472.22" width="27.79" height="27.79" fill="#fff"/><rect x="-.21" y="472.22" width="27.78" height="27.79" fill="#c9c9c9"/></g></svg>