<?xml version="1.0" encoding="UTF-8"?><svg id="a" xmlns="http://www.w3.org/2000/svg" viewBox="0 0 1000 1000"><rect x="219.7" y="451.53" width="34.42" height="34.43" fill="#f7e431"/><rect x="219.7" y="485.96" width="34.42" height="34.42" fill="#f7e431"/><rect x="219.7" y="520.38" width="34.42" height="34.42" fill="#f7e431"/><rect x="254.12" y="348.26" width="34.42" height="34.42" fill="#f7e431"/><rect x="254.12" y="382.69" width="34.42" height="34.42" fill="#f7e431"/><rect x="254.12" y="417.11" width="34.42" height="34.42" fill="#f7e431"/><rect x="254.12" y="451.53" width="34.42" height="34.43" fill="#f7e431"/><rect x="254.12" y="485.96" width="34.42" height="34.42" fill="#f7e431"/><rect x="254.12" y="520.38" width="34.42" height="34.42" fill="#f7e431"/><rect x="254.12" y="554.81" width="34.42" height="34.42" fill="#f7e431"/><rect x="254.12" y="589.23" width="34.42" height="34.42" fill="#f7e431"/><rect x="254.12" y="623.66" width="34.42" height="34.43" fill="#f7e431"/><rect x="288.55" y="313.83" width="34.42" height="34.43" fill="#f7e431"/><rect x="288.55" y="348.26" width="34.42" height="34.42" fill="#f7e431"/><rect x="288.55" y="382.69" width="34.42" height="34.42" fill="#f7e431"/><rect x="288.55" y="417.11" width="34.42" height="34.42" fill="#f7e431"/><rect x="288.55" y="451.53" width="34.42" height="34.43" fill="#f7e431"/><rect x="288.55" y="485.96" width="34.42" height="34.42" fill="#f7e431"/><rect x="288.55" y="520.38" width="34.42" height="34.42" fill="#f7e431"/><rect x="288.55" y="554.81" width="34.42" height="34.42" fill="#f7e431"/><rect x="288.55" y="589.23" width="34.42" height="34.42" fill="#f7e431"/><rect x="288.55" y="623.66" width="34.42" height="34.43" fill="#f7e431"/><rect x="288.55" y="658.08" width="34.42" height="34.42" fill="#f7e431"/><rect x="322.97" y="279.41" width="34.42" height="34.42" fill="#f7e431"/><rect x="322.97" y="313.83" width="34.42" height="34.43" fill="#f7e431"/><rect x="322.97" y="348.26" width="34.42" height="34.42" fill="#f7e431"/><rect x="322.97" y="382.69" width="34.42" height="34.42" fill="#f7e431"/><rect x="322.97" y="417.11" width="34.42" height="34.42" fill="#f7e431"/><rect x="322.97" y="451.53" width="34.42" height="34.43" fill="#f7e431"/><rect x="322.97" y="485.96" width="34.42" height="34.42" fill="#f7e431"/><rect x="322.97" y="520.38" width="34.42" height="34.42" fill="#f7e431"/><rect x="322.97" y="554.81" width="34.42" height="34.42" fill="#f7e431"/><rect x="322.97" y="589.23" width="34.42" height="34.42"/><rect x="322.97" y="623.66" width="34.42" height="34.43" fill="#f7e431"/><rect x="322.97" y="658.08" width="34.42" height="34.42" fill="#f7e431"/><rect x="322.97" y="692.51" width="34.42" height="34.42" fill="#f7e431"/><rect x="357.4" y="244.99" width="34.43" height="34.42" fill="#f7e431"/><rect x="357.4" y="279.41" width="34.43" height="34.42" fill="#f7e431"/><rect x="357.4" y="313.83" width="34.43" height="34.43" fill="#f7e431"/><rect x="357.4" y="348.26" width="34.43" height="34.42" fill="#f7e431"/><rect x="357.4" y="382.69" width="34.43" height="34.42" fill="#f7e431"/><rect x="357.4" y="417.11" width="34.43" height="34.42"/><rect x="357.4" y="451.53" width="34.43" height="34.43"/><rect x="357.4" y="485.96" width="34.43" height="34.42" fill="#f7e431"/><rect x="357.4" y="520.38" width="34.43" height="34.42" fill="#f7e431"/><rect x="357.4" y="554.81" width="34.43" height="34.42"/><rect x="357.4" y="589.23" width="34.43" height="34.42"/><rect x="357.4" y="623.66" width="34.43" height="34.43"/><rect x="357.4" y="658.08" width="34.43" height="34.42" fill="#f7e431"/><rect x="357.4" y="692.51" width="34.43" height="34.42" fill="#f7e431"/><rect x="357.4" y="726.93" width="34.43" height="34.42" fill="#f7e431"/><rect x="391.82" y="244.99" width="34.42" height="34.42" fill="#f7e431"/><rect x="391.82" y="279.41" width="34.42" height="34.42" fill="#f7e431"/><rect x="391.82" y="313.83" width="34.42" height="34.43" fill="#f7e431"/><rect x="391.82" y="348.26" width="34.42" height="34.42" fill="#f7e431"/><rect x="391.82" y="382.69" width="34.42" height="34.42"/><rect x="391.82" y="417.11" width="34.42" height="34.42"/><rect x="391.82" y="451.53" width="34.42" height="34.43"/><rect x="391.82" y="485.96" width="34.42" height="34.42"/><rect x="391.82" y="520.38" width="34.42" height="34.42" fill="#f7e431"/><rect x="391.82" y="554.81" width="34.42" height="34.42" fill="#f7e431"/><rect x="391.82" y="589.23" width="34.42" height="34.42"/><rect x="391.82" y="623.66" width="34.42" height="34.43"/><rect x="391.82" y="658.08" width="34.42" height="34.42"/><rect x="391.82" y="692.51" width="34.42" height="34.42" fill="#f7e431"/><rect x="391.82" y="726.93" width="34.42" height="34.42" fill="#f7e431"/><rect x="426.25" y="244.99" width="34.42" height="34.42" fill="#f7e431"/><rect x="426.25" y="279.41" width="34.42" height="34.42" fill="#f7e431"/><rect x="426.25" y="313.83" width="34.42" height="34.43" fill="#f7e431"/><rect x="426.25" y="348.26" width="34.42" height="34.42" fill="#f7e431"/><rect x="426.25" y="382.69" width="34.42" height="34.42" fill="#f7e431"/><rect x="426.25" y="417.11" width="34.42" height="34.42"/><rect x="426.25" y="451.53" width="34.42" height="34.43"/><rect x="426.25" y="485.96" width="34.42" height="34.42" fill="#f7e431"/><rect x="426.25" y="520.38" width="34.42" height="34.42" fill="#f7e431"/><rect x="426.25" y="554.81" width="34.42" height="34.42" fill="#f7e431"/><rect x="426.25" y="589.23" width="34.42" height="34.42" fill="#f7e431"/><rect x="426.25" y="623.66" width="34.42" height="34.43"/><rect x="426.25" y="658.08" width="34.42" height="34.42"/><rect x="426.25" y="692.51" width="34.42" height="34.42" fill="#f7e431"/><rect x="426.25" y="726.93" width="34.42" height="34.42" fill="#f7e431"/><rect x="460.67" y="210.56" width="34.42" height="34.42" fill="#f7e431"/><rect x="460.67" y="244.99" width="34.42" height="34.42" fill="#f7e431"/><rect x="460.67" y="279.41" width="34.42" height="34.42" fill="#f7e431"/><rect x="460.67" y="313.83" width="34.42" height="34.43" fill="#f7e431"/><rect x="460.67" y="348.26" width="34.42" height="34.42" fill="#f7e431"/><rect x="460.67" y="382.69" width="34.42" height="34.42" fill="#f7e431"/><rect x="460.67" y="417.11" width="34.42" height="34.42" fill="#f7e431"/><rect x="460.67" y="451.53" width="34.42" height="34.43" fill="#f7e431"/><rect x="460.67" y="485.96" width="34.42" height="34.42" fill="#f7e431"/><rect x="460.67" y="520.38" width="34.42" height="34.42" fill="#f7e431"/><rect x="460.67" y="554.81" width="34.42" height="34.42" fill="#f7e431"/><rect x="460.67" y="589.23" width="34.42" height="34.42" fill="#f7e431"/><rect x="460.67" y="623.66" width="34.42" height="34.43" fill="#f7e431"/><rect x="460.67" y="658.08" width="34.42" height="34.42"/><rect x="460.67" y="692.51" width="34.42" height="34.42"/><rect x="460.67" y="726.93" width="34.42" height="34.42" fill="#f7e431"/><rect x="460.67" y="761.36" width="34.42" height="34.43" fill="#f7e431"/><rect x="495.1" y="210.56" width="34.43" height="34.42" fill="#f7e431"/><rect x="495.1" y="244.99" width="34.43" height="34.42" fill="#f7e431"/><rect x="495.1" y="279.41" width="34.43" height="34.42" fill="#f7e431"/><rect x="495.1" y="313.83" width="34.43" height="34.43" fill="#f7e431"/><rect x="495.1" y="348.26" width="34.43" height="34.42" fill="#f7e431"/><rect x="495.1" y="382.69" width="34.43" height="34.42" fill="#f7e431"/><rect x="495.1" y="417.11" width="34.43" height="34.42" fill="#f7e431"/><rect x="495.1" y="451.53" width="34.43" height="34.43" fill="#f7e431"/><rect x="495.1" y="485.96" width="34.43" height="34.42" fill="#f7e431"/><rect x="495.1" y="520.38" width="34.43" height="34.42" fill="#f7e431"/><rect x="495.1" y="554.81" width="34.43" height="34.42" fill="#f7e431"/><rect x="495.1" y="589.23" width="34.43" height="34.42" fill="#f7e431"/><rect x="495.1" y="623.66" width="34.43" height="34.43" fill="#f7e431"/><rect x="495.1" y="658.08" width="34.43" height="34.42"/><rect x="495.1" y="692.51" width="34.43" height="34.42"/><rect x="495.1" y="726.93" width="34.43" height="34.42" fill="#f7e431"/><rect x="495.1" y="761.36" width="34.43" height="34.43" fill="#f7e431"/><rect x="529.52" y="210.56" width="34.42" height="34.42" fill="#f7e431"/><rect x="529.52" y="244.99" width="34.42" height="34.42" fill="#f7e431"/><rect x="529.52" y="279.41" width="34.42" height="34.42" fill="#f7e431"/><rect x="529.52" y="313.83" width="34.42" height="34.43" fill="#f7e431"/><rect x="529.52" y="348.26" width="34.42" height="34.42" fill="#f7e431"/><rect x="529.52" y="382.69" width="34.42" height="34.42" fill="#f7e431"/><rect x="529.52" y="417.11" width="34.42" height="34.42" fill="#f7e431"/><rect x="529.52" y="451.53" width="34.42" height="34.43" fill="#f7e431"/><rect x="529.52" y="485.96" width="34.42" height="34.42" fill="#f7e431"/><rect x="529.52" y="520.38" width="34.42" height="34.42" fill="#f7e431"/><rect x="529.52" y="554.81" width="34.42" height="34.42" fill="#f7e431"/><rect x="529.52" y="589.23" width="34.42" height="34.42" fill="#f7e431"/><rect x="529.52" y="623.66" width="34.42" height="34.43" fill="#f7e431"/><rect x="529.52" y="658.08" width="34.42" height="34.42"/><rect x="529.52" y="692.51" width="34.42" height="34.42"/><rect x="529.52" y="726.93" width="34.42" height="34.42" fill="#f7e431"/><rect x="529.52" y="761.36" width="34.42" height="34.43" fill="#f7e431"/><rect x="563.95" y="210.56" width="34.42" height="34.42" fill="#f7e431"/><rect x="563.95" y="244.99" width="34.42" height="34.42" fill="#f7e431"/><rect x="563.95" y="279.41" width="34.42" height="34.42" fill="#f7e431"/><rect x="563.95" y="313.83" width="34.42" height="34.43" fill="#f7e431"/><rect x="563.95" y="348.26" width="34.42" height="34.42" fill="#f7e431"/><rect x="563.95" y="382.69" width="34.42" height="34.42" fill="#f7e431"/><rect x="563.95" y="417.11" width="34.42" height="34.42"/><rect x="563.95" y="451.53" width="34.42" height="34.43"/><rect x="563.95" y="485.96" width="34.42" height="34.42" fill="#f7e431"/><rect x="563.95" y="520.38" width="34.42" height="34.42" fill="#f7e431"/><rect x="563.95" y="554.81" width="34.42" height="34.42" fill="#f7e431"/><rect x="563.95" y="589.23" width="34.42" height="34.42" fill="#f7e431"/><rect x="563.95" y="623.66" width="34.42" height="34.43"/><rect x="563.95" y="658.08" width="34.42" height="34.42"/><rect x="563.95" y="692.51" width="34.42" height="34.42" fill="#f7e431"/><rect x="563.95" y="726.93" width="34.42" height="34.42" fill="#f7e431"/><rect x="563.95" y="761.36" width="34.42" height="34.43" fill="#f7e431"/><rect x="598.37" y="244.99" width="34.42" height="34.42" fill="#f7e431"/><rect x="598.37" y="279.41" width="34.42" height="34.42" fill="#f7e431"/><rect x="598.37" y="313.83" width="34.42" height="34.43" fill="#f7e431"/><rect x="598.37" y="348.26" width="34.42" height="34.42" fill="#f7e431"/><rect x="598.37" y="382.69" width="34.42" height="34.42"/><rect x="598.37" y="417.11" width="34.42" height="34.42"/><rect x="598.37" y="451.53" width="34.42" height="34.43"/><rect x="598.37" y="485.96" width="34.42" height="34.42"/><rect x="598.37" y="520.38" width="34.42" height="34.42" fill="#f7e431"/><rect x="598.37" y="554.81" width="34.42" height="34.42" fill="#f7e431"/><rect x="598.37" y="589.23" width="34.42" height="34.42"/><rect x="598.37" y="623.66" width="34.42" height="34.43"/><rect x="598.37" y="658.08" width="34.42" height="34.42"/><rect x="598.37" y="692.51" width="34.42" height="34.42" fill="#f7e431"/><rect x="598.37" y="726.93" width="34.42" height="34.42" fill="#f7e431"/><rect x="632.8" y="244.99" width="34.43" height="34.42" fill="#f7e431"/><rect x="632.8" y="279.41" width="34.43" height="34.42" fill="#f7e431"/><rect x="632.8" y="313.83" width="34.43" height="34.43" fill="#f7e431"/><rect x="632.8" y="348.26" width="34.43" height="34.42" fill="#f7e431"/><rect x="632.8" y="382.69" width="34.43" height="34.42" fill="#f7e431"/><rect x="632.8" y="417.11" width="34.43" height="34.42"/><rect x="632.8" y="451.53" width="34.43" height="34.43"/><rect x="632.8" y="485.96" width="34.43" height="34.42" fill="#f7e431"/><rect x="632.8" y="520.38" width="34.43" height="34.42" fill="#f7e431"/><rect x="632.8" y="554.81" width="34.43" height="34.42"/><rect x="632.8" y="589.23" width="34.43" height="34.42"/><rect x="632.8" y="623.66" width="34.43" height="34.43"/><rect x="632.8" y="658.08" width="34.43" height="34.42" fill="#f7e431"/><rect x="632.8" y="692.51" width="34.43" height="34.42" fill="#f7e431"/><rect x="632.8" y="726.93" width="34.43" height="34.42" fill="#f7e431"/><rect x="667.22" y="279.41" width="34.42" height="34.42" fill="#f7e431"/><rect x="667.22" y="313.83" width="34.42" height="34.43" fill="#f7e431"/><rect x="667.22" y="348.26" width="34.42" height="34.42" fill="#f7e431"/><rect x="667.22" y="382.69" width="34.42" height="34.42" fill="#f7e431"/><rect x="667.22" y="417.11" width="34.42" height="34.42" fill="#f7e431"/><rect x="667.22" y="451.53" width="34.42" height="34.43" fill="#f7e431"/><rect x="667.22" y="485.96" width="34.42" height="34.42" fill="#f7e431"/><rect x="667.22" y="520.38" width="34.42" height="34.42" fill="#f7e431"/><rect x="667.22" y="554.81" width="34.42" height="34.42" fill="#f7e431"/><rect x="667.22" y="589.23" width="34.42" height="34.42"/><rect x="667.22" y="623.66" width="34.42" height="34.43" fill="#f7e431"/><rect x="667.22" y="658.08" width="34.42" height="34.42" fill="#f7e431"/><rect x="667.22" y="692.51" width="34.42" height="34.42" fill="#f7e431"/><rect x="701.65" y="313.83" width="34.42" height="34.43" fill="#f7e431"/><rect x="701.65" y="348.26" width="34.42" height="34.42" fill="#f7e431"/><rect x="701.65" y="382.69" width="34.42" height="34.42" fill="#f7e431"/><rect x="701.65" y="417.11" width="34.42" height="34.42" fill="#f7e431"/><rect x="701.65" y="451.53" width="34.42" height="34.43" fill="#f7e431"/><rect x="701.65" y="485.96" width="34.42" height="34.42" fill="#f7e431"/><rect x="701.65" y="520.38" width="34.42" height="34.42" fill="#f7e431"/><rect x="701.65" y="554.81" width="34.42" height="34.42" fill="#f7e431"/><rect x="701.65" y="589.23" width="34.42" height="34.42" fill="#f7e431"/><rect x="701.65" y="623.66" width="34.42" height="34.43" fill="#f7e431"/><rect x="701.65" y="658.08" width="34.42" height="34.42" fill="#f7e431"/><rect x="736.07" y="348.26" width="34.42" height="34.42" fill="#f7e431"/><rect x="736.07" y="382.69" width="34.42" height="34.42" fill="#f7e431"/><rect x="736.07" y="417.11" width="34.42" height="34.42" fill="#f7e431"/><rect x="736.07" y="451.53" width="34.42" height="34.43" fill="#f7e431"/><rect x="736.07" y="485.96" width="34.42" height="34.42" fill="#f7e431"/><rect x="736.07" y="520.38" width="34.42" height="34.42" fill="#f7e431"/><rect x="736.07" y="554.81" width="34.42" height="34.42" fill="#f7e431"/><rect x="736.07" y="589.23" width="34.42" height="34.42" fill="#f7e431"/><rect x="770.49" y="417.11" width="34.42" height="34.42" fill="#f7e431"/><rect x="770.49" y="451.53" width="34.42" height="34.43" fill="#f7e431"/><rect x="770.49" y="485.96" width="34.42" height="34.42" fill="#f7e431"/><rect x="770.49" y="520.38" width="34.42" height="34.42" fill="#f7e431"/></svg>